<svg width="152" height="153" viewBox="0 0 152 153" fill="none" xmlns="http://www.w3.org/2000/svg">
<path fill-rule="evenodd" clip-rule="evenodd" d="M76.0103 5.50852e-07C96.166 5.50852e-07 115.495 8.06 129.746 22.4066C143.997 36.7532 152.002 56.211 152 76.4989C152 107.441 133.482 135.335 105.083 147.176C76.6825 159.016 43.9933 152.469 22.2585 130.588C0.523706 108.708 -5.97619 75.803 5.78991 47.2176C17.556 18.6322 45.2708 -0.00369945 76.0103 5.50852e-07ZM43.1293 30.9125C39.9109 30.1756 36.5592 30.2744 33.3891 31.1995C33.4949 31.3106 33.5662 31.3846 33.611 31.4309L33.6742 31.4957L34.594 31.6346C40.0929 32.1345 45.3554 34.1209 49.825 37.3838C51.6265 38.632 53.2941 40.0654 54.8009 41.661C56.1897 43.2164 57.6981 45.1328 58.158 46.9751C58.6179 48.8175 59.648 50.3172 60.1354 52.0392C61.7358 57.7051 62.398 65.9262 58.719 70.9441C57.4406 72.7031 55.2424 74.4714 56.9439 77.2488C57.0175 77.3876 56.7416 77.6932 56.7416 77.9339C56.6015 78.769 56.5614 79.617 56.622 80.461C57.0083 82.933 57.4774 85.396 57.928 87.868C57.9648 88.034 58.0568 88.192 58.0568 88.358C60.6689 95.765 63.7041 102.819 70.2251 107.8C72.9843 109.911 73.0855 111.744 71.246 114.623C69.3421 117.688 67.2911 120.697 65.4516 123.807H67.9533L68.1556 123.428C69.5169 121.132 70.9517 118.928 72.3773 116.605C73.8029 114.281 75.1549 111.929 76.6449 109.652C77.0597 109.04 77.675 108.594 78.383 108.393L78.76 108.319C79.196 108.234 79.644 108.39 79.934 108.729C80.225 109.067 80.314 109.535 80.168 109.957C79.744 111.189 79.386 112.485 79.064 113.809C78.337 116.771 77.7762 119.836 77.068 122.567C78.025 122.372 78.475 122.428 79.469 122.224C79.855 119.891 80.738 116.614 81.418 114.031C81.74 112.781 82.366 109.494 83.332 108.42C84.297 107.347 87.314 106.458 89.705 105.291C90.186 105.04 90.7 104.859 91.232 104.754C91.726 104.706 92.225 104.728 92.713 104.819C93.81 104.989 94.892 105.242 95.95 105.578C99.143 106.94 101.82 109.292 103.594 112.29C105.47 115.392 108.827 117.799 111.586 120.15C112.926 121.299 114.73 121.736 116.442 121.326H116.498C118.135 122.428 121.271 123.335 122.734 122.789C124.196 122.243 126.357 121.141 126.357 119.373C126.665 119.229 126.953 119.046 127.213 118.826C127.868 118.217 127.94 117.2 127.378 116.503C125.493 113.346 121.216 111.929 118.346 109.846C114.312 106.933 110.326 103.933 106.39 100.847C105.673 100.343 105.032 99.738 104.486 99.051C103.216 97.32 103.198 94.728 102.508 92.691C101.73 90.36 100.614 88.158 99.197 86.155C98.106 84.668 97.096 83.123 96.171 81.526C93.578 76.9988 91.002 72.4716 86.909 69.1203C84.674 67.2872 84.858 65.0004 84.923 62.3897C85.011 59.1778 84.219 56.0034 82.633 53.215C79.147 47.0955 72.6624 44.4847 65.9482 43.957C64.7786 43.896 63.643 43.5394 62.6463 42.9201C61.2584 41.8538 59.9602 40.6741 58.765 39.3928C54.4852 35.093 49.0507 32.1455 43.1293 30.9125Z" fill="url(#paint0_linear_101_7)"/>
<defs>
<linearGradient id="paint0_linear_101_7" x1="-82.9955" y1="61.9887" x2="223.277" y2="203.593" gradientUnits="userSpaceOnUse">
<stop stop-color="#00B993"/>
<stop offset="1" stop-color="#0080BC"/>
</linearGradient>
</defs>
</svg>
