<svg width="48" height="48" viewBox="0 0 48 48" fill="none" xmlns="http://www.w3.org/2000/svg">
<g filter="url(#filter0_bii_2056_7556)">
<circle cx="24" cy="24" r="23" fill="#D9D9D9" fill-opacity="0.13"/>
<circle cx="24" cy="24" r="23.5" stroke="#4E4E4F"/>
</g>
<path d="M30.75 35.5832C29.7431 35.5832 28.8872 35.2307 28.1823 34.5259C27.4774 33.821 27.125 32.9651 27.125 31.9582C27.125 31.8172 27.1351 31.671 27.1552 31.5195C27.1753 31.3689 27.2056 31.2332 27.2458 31.1123L18.7271 26.1582C18.3847 26.4603 18.0021 26.6967 17.5792 26.8675C17.1562 27.039 16.7132 27.1248 16.25 27.1248C15.2431 27.1248 14.3872 26.7724 13.6823 26.0675C12.9774 25.3627 12.625 24.5068 12.625 23.4998C12.625 22.4929 12.9774 21.637 13.6823 20.9321C14.3872 20.2273 15.2431 19.8748 16.25 19.8748C16.7132 19.8748 17.1562 19.9602 17.5792 20.131C18.0021 20.3026 18.3847 20.5394 18.7271 20.8415L27.2458 15.8873C27.2056 15.7665 27.1753 15.6308 27.1552 15.4801C27.1351 15.3287 27.125 15.1825 27.125 15.0415C27.125 14.0346 27.4774 13.1787 28.1823 12.4738C28.8872 11.7689 29.7431 11.4165 30.75 11.4165C31.7569 11.4165 32.6128 11.7689 33.3177 12.4738C34.0226 13.1787 34.375 14.0346 34.375 15.0415C34.375 16.0484 34.0226 16.9044 33.3177 17.6092C32.6128 18.3141 31.7569 18.6665 30.75 18.6665C30.2868 18.6665 29.8438 18.5807 29.4208 18.4091C28.9979 18.2384 28.6153 18.0019 28.2729 17.6998L19.7542 22.654C19.7944 22.7748 19.8247 22.9106 19.8448 23.0612C19.8649 23.2127 19.875 23.3589 19.875 23.4998C19.875 23.6408 19.8649 23.7866 19.8448 23.9373C19.8247 24.0887 19.7944 24.2248 19.7542 24.3457L28.2729 29.2998C28.6153 28.9978 28.9979 28.7609 29.4208 28.5893C29.8438 28.4186 30.2868 28.3332 30.75 28.3332C31.7569 28.3332 32.6128 28.6856 33.3177 29.3905C34.0226 30.0953 34.375 30.9512 34.375 31.9582C34.375 32.9651 34.0226 33.821 33.3177 34.5259C32.6128 35.2307 31.7569 35.5832 30.75 35.5832ZM30.75 16.2498C31.0924 16.2498 31.3791 16.1342 31.6103 15.903C31.8423 15.671 31.9583 15.3839 31.9583 15.0415C31.9583 14.6991 31.8423 14.412 31.6103 14.18C31.3791 13.9488 31.0924 13.8332 30.75 13.8332C30.4076 13.8332 30.1209 13.9488 29.8897 14.18C29.6577 14.412 29.5417 14.6991 29.5417 15.0415C29.5417 15.3839 29.6577 15.671 29.8897 15.903C30.1209 16.1342 30.4076 16.2498 30.75 16.2498ZM16.25 24.7082C16.5924 24.7082 16.8795 24.5922 17.1115 24.3602C17.3427 24.129 17.4583 23.8422 17.4583 23.4998C17.4583 23.1575 17.3427 22.8703 17.1115 22.6383C16.8795 22.4071 16.5924 22.2915 16.25 22.2915C15.9076 22.2915 15.6205 22.4071 15.3885 22.6383C15.1573 22.8703 15.0417 23.1575 15.0417 23.4998C15.0417 23.8422 15.1573 24.129 15.3885 24.3602C15.6205 24.5922 15.9076 24.7082 16.25 24.7082ZM30.75 33.1665C31.0924 33.1665 31.3791 33.0505 31.6103 32.8185C31.8423 32.5873 31.9583 32.3005 31.9583 31.9582C31.9583 31.6158 31.8423 31.329 31.6103 31.0978C31.3791 30.8658 31.0924 30.7498 30.75 30.7498C30.4076 30.7498 30.1209 30.8658 29.8897 31.0978C29.6577 31.329 29.5417 31.6158 29.5417 31.9582C29.5417 32.3005 29.6577 32.5873 29.8897 32.8185C30.1209 33.0505 30.4076 33.1665 30.75 33.1665Z" fill="#4E4E4F"/>
<defs>
<filter id="filter0_bii_2056_7556" x="-7.05333" y="-7.05333" width="62.1067" height="62.1067" filterUnits="userSpaceOnUse" color-interpolation-filters="sRGB">
<feFlood flood-opacity="0" result="BackgroundImageFix"/>
<feGaussianBlur in="BackgroundImageFix" stdDeviation="3.52667"/>
<feComposite in2="SourceAlpha" operator="in" result="effect1_backgroundBlur_2056_7556"/>
<feBlend mode="normal" in="SourceGraphic" in2="effect1_backgroundBlur_2056_7556" result="shape"/>
<feColorMatrix in="SourceAlpha" type="matrix" values="0 0 0 0 0 0 0 0 0 0 0 0 0 0 0 0 0 0 127 0" result="hardAlpha"/>
<feOffset dx="-3.06667" dy="3.06667"/>
<feGaussianBlur stdDeviation="1.53333"/>
<feComposite in2="hardAlpha" operator="arithmetic" k2="-1" k3="1"/>
<feColorMatrix type="matrix" values="0 0 0 0 1 0 0 0 0 1 0 0 0 0 1 0 0 0 0.13 0"/>
<feBlend mode="normal" in2="shape" result="effect2_innerShadow_2056_7556"/>
<feColorMatrix in="SourceAlpha" type="matrix" values="0 0 0 0 0 0 0 0 0 0 0 0 0 0 0 0 0 0 127 0" result="hardAlpha"/>
<feOffset dx="3.06667" dy="-3.06667"/>
<feGaussianBlur stdDeviation="1.53333"/>
<feComposite in2="hardAlpha" operator="arithmetic" k2="-1" k3="1"/>
<feColorMatrix type="matrix" values="0 0 0 0 0.646745 0 0 0 0 0.646745 0 0 0 0 0.646745 0 0 0 0.13 0"/>
<feBlend mode="normal" in2="effect2_innerShadow_2056_7556" result="effect3_innerShadow_2056_7556"/>
</filter>
</defs>
</svg>
