<svg width="59" height="67" viewBox="0 0 59 67" fill="none" xmlns="http://www.w3.org/2000/svg">
<path d="M58.7335 65.143L53.6987 51.7835C53.1321 50.281 52.2371 48.9239 51.079 47.8114C49.9209 46.699 48.529 45.8592 47.0049 45.3534C46.7093 45.2574 46.3877 45.2821 46.1101 45.422C45.8326 45.5619 45.6215 45.8058 45.5229 46.1005C45.4242 46.3953 45.446 46.7171 45.5834 46.9959C45.7208 47.2747 45.9627 47.488 46.2565 47.5893C47.4486 47.9846 48.5373 48.6411 49.4432 49.5108C50.3491 50.3806 51.0493 51.4416 51.4928 52.6166L55.9265 64.3797H33.905L32.8239 54.3046L33.2878 53.05L35.2729 54.7759C35.4323 54.9111 35.6246 55.0019 35.8303 55.039C36.036 55.0761 36.2479 55.0582 36.4445 54.9872C36.6411 54.9162 36.8155 54.7945 36.95 54.6345C37.0845 54.4745 37.1744 54.2818 37.2106 54.0759L38.6869 45.0077C38.7953 45.0241 42.3389 46.3186 42.3628 46.2008C42.6391 46.1959 42.905 46.0944 43.1143 45.9138C43.3236 45.7333 43.4631 45.4852 43.5085 45.2125C43.5539 44.9399 43.5024 44.6599 43.3629 44.4213C43.2234 44.1827 43.0048 44.0004 42.7449 43.9062L38.4195 42.4238L36.2481 40.0512V37.3763C38.9931 35.7595 41.0712 33.2163 42.1087 30.2042C46.5862 29.8568 48.2552 24.068 45.2629 21.0228L45.263 16.4666C45.2568 12.8853 44.035 9.41213 41.7975 6.61581C41.5996 6.37885 41.3168 6.2289 41.0096 6.19818C40.7024 6.16745 40.3955 6.2584 40.1546 6.45147C39.9138 6.64455 39.7582 6.92437 39.7214 7.23086C39.6846 7.53734 39.7694 7.84605 39.9576 8.0907C41.8606 10.4681 42.8998 13.4213 42.9051 16.4665V19.6838C42.3341 19.5387 41.7447 19.4793 41.1562 19.5078V14.1351C40.8077 12.1853 38.6985 9.53425 33.8672 10.7846C32.4675 11.2206 31.0146 11.4628 29.5491 11.5043C28.0391 11.468 26.5416 11.2213 25.0998 10.7715C20.4657 9.48892 18.3662 12.198 17.9017 13.8087C17.8711 13.9148 17.8556 14.0247 17.8556 14.1351L17.8706 19.5078C17.2776 19.4796 16.6836 19.5377 16.1073 19.6803V16.4666C15.9652 6.04511 28.0485 -0.55625 36.7236 5.18435C36.9863 5.35412 37.3056 5.4126 37.6113 5.34693C37.9171 5.28127 38.1842 5.09683 38.354 4.8342C38.5238 4.57157 38.5822 4.25226 38.5166 3.94651C38.4509 3.64076 38.2665 3.37361 38.0038 3.20385C35.6233 1.67923 32.8765 0.823117 30.0513 0.725265C27.2261 0.627412 24.4266 1.29142 21.9464 2.64768C19.4661 4.00394 17.3963 6.0025 15.9541 8.43383C14.512 10.8652 13.7504 13.6397 13.7494 16.4666V21.0092C13.2185 21.5546 12.8111 22.2078 12.5551 22.9246C12.299 23.6413 12.2002 24.4048 12.2654 25.1631C12.2694 26.4308 12.7474 27.6512 13.6056 28.5843C14.4638 29.5173 15.64 30.0956 16.9029 30.2054C17.9066 33.1179 19.8846 35.5947 22.5029 37.2178V40.0827L20.4743 42.512L11.9959 45.3534C10.4715 45.8591 9.07926 46.6991 7.92103 47.8119C6.76281 48.9247 5.86784 50.2822 5.30152 51.7852L0.267324 65.143C0.202185 65.3214 0.180798 65.5128 0.204957 65.7012C0.229117 65.8896 0.298118 66.0695 0.406169 66.2257C0.514219 66.3819 0.658166 66.5099 0.825927 66.599C0.993688 66.688 1.18037 66.7356 1.3703 66.7376H8.54998C8.85925 66.7324 9.15409 66.6059 9.37096 66.3853C9.58783 66.1648 9.70936 65.8679 9.70935 65.5585C9.70934 65.2492 9.5878 64.9523 9.37091 64.7318C9.15403 64.5113 8.85918 64.3848 8.54991 64.3796H3.07427L7.50747 52.6177C7.95079 51.4423 8.65111 50.3809 9.55725 49.5109C10.4634 48.6409 11.5524 47.9844 12.7448 47.5893L20.2419 45.0768L21.7925 54.0862C21.8302 54.2909 21.9211 54.4821 22.0561 54.6406C22.191 54.7991 22.3653 54.9193 22.5613 54.9892C22.7574 55.0591 22.9684 55.0762 23.1732 55.0387C23.3779 55.0013 23.5693 54.9107 23.7279 54.7759L25.8221 52.955L26.421 54.3635L25.1187 64.3796H13.2658C12.9564 64.3846 12.6614 64.5111 12.4444 64.7316C12.2274 64.9522 12.1057 65.2492 12.1058 65.5586C12.1058 65.8681 12.2274 66.1651 12.4444 66.3857C12.6615 66.6062 12.9565 66.7326 13.2659 66.7376C24.8895 66.7381 45.8202 66.7372 57.6305 66.7376C57.8204 66.7355 58.0071 66.688 58.1748 66.5989C58.3426 66.5098 58.4865 66.3818 58.5945 66.2256C58.7026 66.0694 58.7716 65.8896 58.7958 65.7012C58.8199 65.5128 58.7986 65.3214 58.7335 65.143ZM42.8371 25.8948V22.1501C43.2962 22.3738 43.6836 22.7212 43.9558 23.1533C44.228 23.5854 44.3741 24.0849 44.3776 24.5955C44.4728 25.2219 44.3608 25.8622 44.0585 26.419C43.7563 26.9758 43.2803 27.4185 42.7032 27.6799C42.7878 27.0885 42.8326 26.4921 42.8371 25.8948ZM14.6232 25.1631C14.5327 24.5609 14.6338 23.9454 14.9121 23.4037C15.1904 22.862 15.6319 22.4215 16.1742 22.1444C16.1207 23.9918 16.1655 25.8407 16.3085 27.6833C15.8101 27.4766 15.3841 27.1269 15.0842 26.6784C14.7843 26.2299 14.6239 25.7027 14.6232 25.1631ZM36.4923 43.8096L35.2234 51.608C34.2327 50.7504 32.0961 48.8859 31.0887 48.0129L35.1819 42.3774L36.4923 43.8096ZM29.5001 49.7569L31.3862 51.3967L30.793 52.9999H28.4035L27.6929 51.3283L29.5001 49.7569ZM29.4792 46.2169L24.8609 40.1317V38.375C27.7662 39.4654 30.9624 39.4992 33.8901 38.4706V40.1427L29.4792 46.2169ZM18.532 25.8948V21.8651C18.7865 21.8555 19.031 21.7638 19.2291 21.6038C19.5231 21.3743 19.7634 21.0835 19.9334 20.7517C20.1034 20.4198 20.199 20.0548 20.2135 19.6822V14.3378C20.4524 13.7523 21.3925 12.1928 24.4251 13.0304C26.0692 13.5523 27.7805 13.8325 29.5052 13.8623C31.2144 13.8342 32.9105 13.5587 34.5406 13.0443C37.6273 12.1865 38.5668 13.7679 38.7982 14.3355L38.7994 19.635C38.8083 20.0152 38.901 20.3887 39.0707 20.729C39.2405 21.0693 39.4832 21.368 39.7815 21.6038C39.9799 21.7636 40.2246 21.8552 40.4792 21.8651V25.8948C39.8774 40.45 19.1338 40.4519 18.532 25.8948ZM23.7607 51.6224L22.424 43.8559L23.631 42.4107L27.8942 48.028C27.8942 48.028 23.7739 51.611 23.7607 51.6224ZM27.4969 64.3796L28.6689 55.3636H30.5663L31.5334 64.3796H27.4969Z" fill="white"/>
</svg>
